<svg xmlns="http://www.w3.org/2000/svg" viewBox="0 0 76904 76904" shape-rendering="geometricPrecision" text-rendering="geometricPrecision" image-rendering="optimizeQuality" fill-rule="evenodd" clip-rule="evenodd"><g fill-rule="nonzero"><path fill="#f03741" d="M0 76904h76904V0H0z"/><path d="M21312 28103h2287v-8276h3486v-2080h-9321v2080h3548zm32572-7325l1501 3759h-3016l1515-3759zm-2170 5586h4324l700 1739h2436l-4279-10356h-2036l-4280 10356h2438l697-1739zm4080 26930c-272 263-632 395-1079 395h-1813v-2808h2008c366 0 673 129 921 386 247 257 370 584 370 981 0 435-137 784-407 1046zm2191 713c337-530 506-1126 506-1790 0-960-344-1772-1033-2430-688-658-1518-986-2490-986h-4338v10356h2272v-3448h1532l2155 3448h2585l-2525-3997c554-240 999-623 1336-1153zm-34649 5150c822 0 1598-170 2326-513 645-302 1205-719 1691-1236l-1568-1318c-661 656-1476 986-2449 986-931 0-1710-308-2340-927-629-620-945-1396-945-2328 0-930 319-1707 952-2332 633-624 1412-935 2333-935 961 0 1775 331 2446 986l1569-1317c-488-516-1050-932-1698-1237-722-342-1495-513-2317-513-1556 0-2872 510-3953 1531-1079 1020-1619 2293-1619 3817 0 1527 540 2797 1619 3813 1081 1015 2397 1523 3953 1523zm-1003-13753h-2186v7l2094 2171h2066l2112-2171v-7h-2219l-923 969z" fill="#fefefe"/></g></svg>